<svg width="40" height="40" viewBox="0 0 40 40" fill="none" xmlns="http://www.w3.org/2000/svg">
<path d="M25 26C26.1 26 27.0417 25.6083 27.825 24.825C28.6083 24.0417 29 23.1 29 22C29 20.9 28.6083 19.9583 27.825 19.175C27.0417 18.3917 26.1 18 25 18C24.5 18 24.025 18.0917 23.575 18.275C23.125 18.4583 22.7167 18.7 22.35 19L17 16.3C17 16.2333 17 16.1833 17 16.15C17 16.1167 17 16.0667 17 16C17 15.9333 17 15.8833 17 15.85C17 15.8167 17 15.7667 17 15.7L22.35 13C22.7167 13.3 23.125 13.5417 23.575 13.725C24.025 13.9083 24.5 14 25 14C26.1 14 27.0417 13.6083 27.825 12.825C28.6083 12.0417 29 11.1 29 10C29 8.9 28.6083 7.95833 27.825 7.175C27.0417 6.39167 26.1 6 25 6C23.9 6 22.9583 6.39167 22.175 7.175C21.3917 7.95833 21 8.9 21 10C21 10.0667 21 10.1167 21 10.15C21 10.1833 21 10.2333 21 10.3L15.65 13C15.2833 12.7 14.875 12.4583 14.425 12.275C13.975 12.0917 13.5 12 13 12C11.9 12 10.9583 12.3917 10.175 13.175C9.39167 13.9583 9 14.9 9 16C9 17.1 9.39167 18.0417 10.175 18.825C10.9583 19.6083 11.9 20 13 20C13.5 20 13.975 19.9083 14.425 19.725C14.875 19.5417 15.2833 19.3 15.65 19L21 21.7C21 21.7667 21 21.8167 21 21.85C21 21.8833 21 21.9333 21 22C21 23.1 21.3917 24.0417 22.175 24.825C22.9583 25.6083 23.9 26 25 26ZM0 40V4C0 2.9 0.391667 1.95833 1.175 1.175C1.95833 0.391667 2.9 0 4 0H36C37.1 0 38.0417 0.391667 38.825 1.175C39.6083 1.95833 40 2.9 40 4V28C40 29.1 39.6083 30.0417 38.825 30.825C38.0417 31.6083 37.1 32 36 32H8L0 40Z" fill="white"/>
</svg>
